<svg id="bell-Bold" xmlns="http://www.w3.org/2000/svg" width="18" height="18" viewBox="0 0 18 18">
  <rect id="Path" width="18" height="18" fill="rgba(255,255,255,0)"/>
  <path id="bell-Bold_1_" d="M219.253,1902.138l-.829-1.384a3,3,0,0,1-.427-1.542v-1.97a5.246,5.246,0,0,0-10.492,0v1.97a3,3,0,0,1-.427,1.541l-.829,1.384a1.725,1.725,0,0,0,1.48,2.611H210.5a2.25,2.25,0,0,0,4.5,0h2.773a1.725,1.725,0,0,0,1.48-2.611Zm-6.5,3.362a.751.751,0,0,1-.75-.75h1.5A.751.751,0,0,1,212.75,1905.5Zm5.219-2.364a.218.218,0,0,1-.2.114H207.727a.219.219,0,0,1-.2-.114.217.217,0,0,1,0-.226l.83-1.385a4.5,4.5,0,0,0,.641-2.312v-1.97a3.746,3.746,0,0,1,7.492,0v1.97a4.5,4.5,0,0,0,.641,2.313l.83,1.385A.218.218,0,0,1,217.969,1903.136Z" transform="translate(-203.75 -1890.5)" fill="#eee"/>
</svg>
