<svg xmlns="http://www.w3.org/2000/svg" width="30.867" height="24.007" viewBox="0 0 30.867 24.007">
  <path id="camera-svgrepo-com" d="M565,250.148a1.713,1.713,0,0,1,1.715-1.718h6.005a1.509,1.509,0,0,0,1.235-.761l.953-1.907a1.521,1.521,0,0,1,1.223-.761h8.6a1.5,1.5,0,0,1,1.223.761l.953,1.907a1.492,1.492,0,0,0,1.235.761h6.005a1.725,1.725,0,0,1,1.715,1.718v17.141a1.711,1.711,0,0,1-1.7,1.718H566.7a1.719,1.719,0,0,1-1.7-1.718Zm1.715,0h7.609a1.474,1.474,0,0,0,1.212-.761l1.3-2.668h7.288l1.2,2.634a1.466,1.466,0,0,0,1.206.8h7.624v17.148H566.715Zm13.719,15.433a6.859,6.859,0,1,0-6.859-6.859A6.86,6.86,0,0,0,580.433,265.578Zm0-1.715a5.144,5.144,0,1,0-5.144-5.144A5.144,5.144,0,0,0,580.433,263.863ZM590.722,257a1.715,1.715,0,1,0-1.715-1.715A1.715,1.715,0,0,0,590.722,257Zm-22.293-9.432a.849.849,0,0,1,.866-.857h1.7a.871.871,0,0,1,.866.857v.857h-3.43Z" transform="translate(-565 -245)" fill="#e2e6e9" fill-rule="evenodd"/>
</svg>
