<svg id="check-circle-Bold" xmlns="http://www.w3.org/2000/svg" width="30" height="30" viewBox="0 0 30 30">
  <rect id="Path" width="30" height="30" fill="rgba(255,255,255,0)"/>
  <path id="check-circle-Bold_1_" d="M415.384,1829.116a1.249,1.249,0,0,1,0,1.768l-6.25,6.25a1.249,1.249,0,0,1-1.767,0l-3.75-3.75a1.25,1.25,0,0,1,1.767-1.768l2.866,2.866,5.366-5.366A1.249,1.249,0,0,1,415.384,1829.116ZM422,1832.5a12.5,12.5,0,1,1-12.5-12.5A12.514,12.514,0,0,1,422,1832.5Zm-2.5,0a10,10,0,1,0-10,10A10.012,10.012,0,0,0,419.5,1832.5Z" transform="translate(-394.5 -1817.499)" fill="#670707"/>
</svg>
