<svg id="comment-dots-Bold" xmlns="http://www.w3.org/2000/svg" width="30" height="30" viewBox="0 0 30 30">
  <rect id="Path" width="30" height="30" fill="rgba(255,255,255,0)"/>
  <path id="comment-dots-Bold_1_" d="M463.75,2037h-12.5a6.257,6.257,0,0,0-6.25,6.25v16.25a1.251,1.251,0,0,0,.771,1.155,1.231,1.231,0,0,0,.479.095,1.25,1.25,0,0,0,.884-.366l3.018-3.018a1.248,1.248,0,0,1,.885-.366H463.75a6.257,6.257,0,0,0,6.25-6.25v-7.5A6.257,6.257,0,0,0,463.75,2037Zm3.75,13.75a3.754,3.754,0,0,1-3.75,3.75H451.036a3.729,3.729,0,0,0-2.653,1.1l-.884.884V2043.25a3.754,3.754,0,0,1,3.75-3.75h12.5a3.754,3.754,0,0,1,3.75,3.75ZM454.063,2047a1.563,1.563,0,1,1-1.562-1.562A1.563,1.563,0,0,1,454.063,2047Zm5,0a1.563,1.563,0,1,1-1.562-1.562A1.563,1.563,0,0,1,459.063,2047Zm5,0a1.563,1.563,0,1,1-1.562-1.562A1.563,1.563,0,0,1,464.063,2047Z" transform="translate(-442.5 -2033.25)" fill="#670707"/>
</svg>
