<svg id="computer-electronics-svgrepo-com" xmlns="http://www.w3.org/2000/svg" width="25.683" height="22.272" viewBox="0 0 25.683 22.272">
  <g id="Group_2162" data-name="Group 2162">
    <path id="Path_2463" data-name="Path 2463" d="M24.667,34H.991A.913.913,0,0,0,0,34.9V50.152a1.085,1.085,0,0,0,.991,1.1H9.43v3.4L7.708,55.8a.283.283,0,0,0-.084.275c.026.085.1.193.189.193H17.845c.088,0,.167-.108.192-.193a.235.235,0,0,0-.074-.25l-1.71-1.169v-3.4h8.415a1.105,1.105,0,0,0,1.016-1.1V34.9A.934.934,0,0,0,24.667,34ZM13.644,52.359a.8.8,0,0,1-1.605,0v-1.1h1.605Zm10.634-2.508H1.4V35.4H24.278Z" transform="translate(0 -34)" fill="#fff"/>
  </g>
</svg>
