<svg id="coupon-Bold" xmlns="http://www.w3.org/2000/svg" width="24" height="24" viewBox="0 0 24 24">
  <rect id="Path" width="24" height="24" fill="rgba(255,255,255,0)"/>
  <path id="coupon-Bold_1_" d="M800,1901h1v-2a5.006,5.006,0,0,0-5-5H786a5.006,5.006,0,0,0-5,5v2h1a1,1,0,0,1,0,2h-1v2a5.006,5.006,0,0,0,5,5h10a5.006,5.006,0,0,0,5-5v-2h-1a1,1,0,0,1,0-2Zm-1-1.829a3,3,0,0,0,0,5.658V1905a3,3,0,0,1-3,3h-1v-2a1,1,0,0,0-2,0v2h-7a3,3,0,0,1-3-3v-.171a3,3,0,0,0,0-5.658V1899a3,3,0,0,1,3-3h7v2a1,1,0,0,0,2,0v-2h1a3,3,0,0,1,3,3ZM795,1901v2a1,1,0,0,1-2,0v-2a1,1,0,0,1,2,0Z" transform="translate(-779 -1890)" fill="#605454"/>
</svg>
