<svg id="devices-laptop-svgrepo-com" xmlns="http://www.w3.org/2000/svg" width="29.91" height="23.133" viewBox="0 0 29.91 23.133">
  <g id="Group_2164" data-name="Group 2164" transform="translate(17.058 8.064)">
    <g id="Group_2163" data-name="Group 2163">
      <path id="Path_2464" data-name="Path 2464" d="M299.248,196.044l-5.582.006A1.666,1.666,0,0,0,292,197.7v11.649a1.766,1.766,0,0,0,1.666,1.764h.008l5.57-.062a1.679,1.679,0,0,0,1.653-1.679l.007-11.657A1.67,1.67,0,0,0,299.248,196.044Zm-3.281.815h.986a.467.467,0,0,1,0,.935h-.986a.467.467,0,0,1,0-.935Zm-1.7.056a.486.486,0,0,1,.661,0,.476.476,0,0,1,.136.332.467.467,0,1,1-.8-.332Zm2.2,13.624a.7.7,0,1,1,.7-.7A.7.7,0,0,1,296.461,210.54Zm3.484-2a.234.234,0,0,1-.234.234h-6.543a.234.234,0,0,1-.234-.234v-9.814a.234.234,0,0,1,.234-.234h6.543a.234.234,0,0,1,.234.234Z" transform="translate(-292 -196.044)" fill="#fff"/>
    </g>
  </g>
  <g id="Group_2166" data-name="Group 2166">
    <g id="Group_2165" data-name="Group 2165">
      <path id="Path_2465" data-name="Path 2465" d="M29.67,75.292h-1.4V59.78A1.807,1.807,0,0,0,26.358,58H3.551a1.807,1.807,0,0,0-1.916,1.78V75.292H.24c-.129,0-.24-.036-.24.093V75.6a2.252,2.252,0,0,0,2.13,2.26h15.4V74.357H3.038V60.1H26.872V74.357H25.7v3.505h2.075A2.252,2.252,0,0,0,29.91,75.6v-.218C29.91,75.255,29.8,75.292,29.67,75.292ZM15.284,59.355a.467.467,0,0,1-.8-.332.458.458,0,0,1,.138-.329.479.479,0,0,1,.659,0,.464.464,0,0,1,.138.329A.47.47,0,0,1,15.284,59.355Z" transform="translate(0 -58)" fill="#fff"/>
    </g>
  </g>
</svg>
