<svg id="EmptyState" xmlns="http://www.w3.org/2000/svg" width="250" height="200" viewBox="0 0 250 200">
  <g id="tile_background">
    <rect id="Rectangle_1" data-name="Rectangle 1" width="250" height="200" fill="#fff"/>
    <path id="Background" d="M202,63a7,7,0,1,1,7,7A7,7,0,0,1,202,63Zm-62,7a7.037,7.037,0,0,1-1.5-.161A7.043,7.043,0,0,1,137,70H46a7,7,0,1,1,0-14H7A7,7,0,1,1,7,42H47a7,7,0,0,0,0-14H22a7,7,0,0,1,0-14H62A7,7,0,1,1,62,0h57a7,7,0,0,1,0,14h64a7,7,0,1,1,0,14h22a7,7,0,1,1,0,14H186a7,7,0,1,0,0,14h6a7,7,0,0,1,0,14Z" transform="translate(17 64)" fill="#f2f3f4"/>
  </g>
  <path id="line" transform="translate(51.128 148)" fill="none" stroke="#1f64e7" stroke-linecap="round" stroke-linejoin="round" stroke-width="2.5" stroke-dasharray="0 0"/>
  <path id="lines" transform="translate(98 39)" fill="none" stroke="#75a4fe" stroke-linecap="round" stroke-linejoin="round" stroke-width="2.5" stroke-dasharray="0 0"/>
  <g id="Page-1" transform="translate(89 71)">
    <g id="cart">
      <rect id="Rectangle_7" data-name="Rectangle 7" width="71" height="75" rx="2" transform="translate(0 12)" fill="#fff" stroke="#d0d4dc" stroke-width="1"/>
      <path id="bag" d="M60.193,67.5H3.375A3.4,3.4,0,0,1,0,64.083V2.563A2.58,2.58,0,0,1,2.591,0L63.568,64.083A3.4,3.4,0,0,1,60.193,67.5Z" transform="translate(4.585 16.082)" fill="#f2f3f4"/>
      <path id="bag-2" data-name="bag" d="M65.913,73.82H3.7A3.721,3.721,0,0,1,0,70.082V2.8A2.824,2.824,0,0,1,2.838,0H67.761a1.861,1.861,0,0,1,1.848,1.869V70.082A3.721,3.721,0,0,1,65.913,73.82Z" transform="translate(1 13.082)" fill="none" stroke="#d0d4dc" stroke-linecap="round" stroke-width="2.5" stroke-dasharray="0 0"/>
      <path id="Rectangle" d="M65.41,0V11.213a1.781,1.781,0,0,1-1.677,1.869H1.677A1.781,1.781,0,0,1,0,11.213V0" transform="translate(68.273 13.082) rotate(180)" fill="none" stroke="#d0d4dc" stroke-width="2.5" stroke-dasharray="0 0"/>
      <path id="Oval" d="M3.27,6.541a3.27,3.27,0,1,1,3.27-3.27A3.27,3.27,0,0,1,3.27,6.541Z" transform="translate(16.879 26.164)" fill="#e8f0fe" stroke="#d0d4dc" stroke-linecap="round" stroke-width="2.5" stroke-dasharray="0 0"/>
      <path id="Oval-2" data-name="Oval" d="M3.27,6.541a3.27,3.27,0,1,1,3.27-3.27A3.27,3.27,0,0,1,3.27,6.541Z" transform="translate(47.716 26.164)" fill="#e8f0fe" stroke="#d0d4dc" stroke-linecap="round" stroke-width="2.5" stroke-dasharray="0 0"/>
      <path id="Oval-3" data-name="Oval" d="M29.9-14.951A14.951,14.951,0,0,1,14.951,0,14.951,14.951,0,0,1,0-14.951" transform="translate(20.617 47.656)" fill="none" stroke="#d0d4dc" stroke-linecap="round" stroke-width="2.5" stroke-dasharray="0 0"/>
      <path id="Path-3" d="M.991,0,7.57,6.494A1,1,0,0,1,7.352,8.08L0,12.151" transform="translate(2.863 0.932)" fill="none" stroke="#d0d4dc" stroke-linecap="round" stroke-width="2.5" stroke-dasharray="0 0"/>
      <path id="Path-3-2" data-name="Path-3" d="M1.427,0,7.722-6.42a1,1,0,0,0-.014-1.414A1,1,0,0,0,7.487-8L0-12.083" transform="translate(68.867 0.999) rotate(180)" fill="none" stroke="#d0d4dc" stroke-linecap="round" stroke-width="2.5" stroke-dasharray="0 0"/>
    </g>
  </g>
</svg>
