<svg id="globe-Bold" xmlns="http://www.w3.org/2000/svg" width="30" height="30" viewBox="0 0 30 30">
  <rect id="Path" width="30" height="30" fill="rgba(255,255,255,0)"/>
  <path id="globe-Bold_1_" d="M565.28,1828.336a12.419,12.419,0,0,0-9.991-8.211,12.9,12.9,0,0,0-3.579,0,12.414,12.414,0,0,0-9.985,8.2,12.391,12.391,0,0,0-.005,8.339,12.42,12.42,0,0,0,9.991,8.211,12.837,12.837,0,0,0,1.789.125,12.685,12.685,0,0,0,1.79-.125,12.415,12.415,0,0,0,9.985-8.2,12.39,12.39,0,0,0,.005-8.339Zm-1.78,4.164a9.788,9.788,0,0,1-.321,2.5h-3.6a18.6,18.6,0,0,0,0-5h3.6A9.8,9.8,0,0,1,563.5,1832.5Zm-13.557,2.5a16.335,16.335,0,0,1,0-5h7.116a16.33,16.33,0,0,1,0,5Zm-6.122,0a9.927,9.927,0,0,1,0-5h3.6a18.608,18.608,0,0,0,0,5Zm18.316-7.5h-3.014a20.565,20.565,0,0,0-1.434-4.083A9.88,9.88,0,0,1,562.136,1827.5Zm-7.759-4.94a18.168,18.168,0,0,1,2.179,4.94h-6.112a18.2,18.2,0,0,1,2.179-4.94c.293-.025.581-.061.878-.061S554.086,1822.536,554.378,1822.561Zm-5.066.856a20.6,20.6,0,0,0-1.435,4.084h-3.015A9.9,9.9,0,0,1,549.311,1823.418Zm-4.446,14.084h3.013a20.517,20.517,0,0,0,1.434,4.08A9.884,9.884,0,0,1,544.865,1837.5Zm7.756,4.938a18.221,18.221,0,0,1-2.177-4.937h6.111a18.194,18.194,0,0,1-2.178,4.938A10.572,10.572,0,0,1,552.621,1842.439Zm5.069-.856a20.619,20.619,0,0,0,1.434-4.081h3.014A9.9,9.9,0,0,1,557.69,1841.583Z" transform="translate(-538.5 -1817.5)" fill="#670707"/>
</svg>
