<svg id="Group_2169" data-name="Group 2169" xmlns="http://www.w3.org/2000/svg" width="21.15" height="19.66" viewBox="0 0 21.15 19.66">
  <g id="Group_1640" data-name="Group 1640">
    <path id="Home" d="M63.575,1268.7a1.527,1.527,0,0,0-.961.385l-8.893,8.941a2.473,2.473,0,0,0-.721,1.73v7.162a1.446,1.446,0,0,0,1.442,1.442H60.21a1.446,1.446,0,0,0,1.442-1.442v-4.326a1.923,1.923,0,1,1,3.845,0v4.326a1.446,1.446,0,0,0,1.442,1.442h5.768a1.446,1.446,0,0,0,1.442-1.442v-7.162a2.439,2.439,0,0,0-.721-1.73l-8.893-8.893a1.36,1.36,0,0,0-.961-.433" transform="translate(-53 -1268.7)" fill="#e2e6e9"/>
  </g>
</svg>
