<svg id="info-circle-Bold" xmlns="http://www.w3.org/2000/svg" width="30" height="30" viewBox="0 0 30 30">
  <rect id="Path" width="30" height="30" fill="rgba(255,255,255,0)"/>
  <path id="info-circle-Bold_1_" d="M361.5,1820a12.5,12.5,0,1,0,12.5,12.5A12.514,12.514,0,0,0,361.5,1820Zm0,22.5a10,10,0,1,1,10-10A10.012,10.012,0,0,1,361.5,1842.5Zm1.25-15a1.25,1.25,0,1,1-1.25-1.25A1.25,1.25,0,0,1,362.75,1827.5Zm0,5v5a1.25,1.25,0,0,1-2.5,0v-5a1.25,1.25,0,0,1,2.5,0Z" transform="translate(-346.5 -1817.5)" fill="#670707"/>
</svg>
