<svg id="lock-Bold" xmlns="http://www.w3.org/2000/svg" width="30" height="30" viewBox="0 0 30 30">
  <rect id="Path" width="30" height="30" fill="rgba(255,255,255,0)"/>
  <path id="lock-Bold_1_" d="M703.25,1757.28v-3.03a6.25,6.25,0,1,0-12.5,0v3.03A6.253,6.253,0,0,0,687,1763v3.75a6.257,6.257,0,0,0,6.25,6.25h7.5a6.257,6.257,0,0,0,6.25-6.25V1763A6.253,6.253,0,0,0,703.25,1757.28Zm-10-3.03a3.75,3.75,0,0,1,7.5,0v2.5h-7.5Zm11.25,12.5a3.754,3.754,0,0,1-3.75,3.75h-7.5a3.754,3.754,0,0,1-3.75-3.75V1763a3.754,3.754,0,0,1,3.75-3.75h7.5a3.754,3.754,0,0,1,3.75,3.75Zm-6.25-2.5v1.25a1.25,1.25,0,0,1-2.5,0v-1.25a1.25,1.25,0,0,1,2.5,0Z" transform="translate(-682 -1745.501)" fill="#670707"/>
</svg>
