<svg id="log-out-Bold" xmlns="http://www.w3.org/2000/svg" width="24" height="24" viewBox="0 0 24 24">
  <rect id="Path" width="24" height="24" fill="rgba(255,255,255,0)"/>
  <path id="log-out-Bold_1_" d="M502.335,1835.836a.833.833,0,0,1-.833.833h-3.334A4.172,4.172,0,0,1,494,1832.5v-8.334a4.172,4.172,0,0,1,4.167-4.167H501.5a.833.833,0,0,1,0,1.667h-3.334a2.5,2.5,0,0,0-2.5,2.5v8.334a2.5,2.5,0,0,0,2.5,2.5H501.5A.833.833,0,0,1,502.335,1835.836Zm6.6-7.183a.836.836,0,0,0-.181-.908l-3.333-3.333a.833.833,0,1,0-1.179,1.178l1.911,1.911h-6.322a.833.833,0,1,0,0,1.667h6.322l-1.911,1.911a.833.833,0,0,0,1.179,1.179l3.333-3.333A.817.817,0,0,0,508.938,1828.653Z" transform="translate(-491 -1818)" fill="#670707"/>
</svg>
