<svg id="map-marker-Bold" xmlns="http://www.w3.org/2000/svg" width="30" height="30" viewBox="0 0 30 30">
  <rect id="Path" width="30" height="30" fill="rgba(255,255,255,0)"/>
  <path id="map-marker-Bold_1_" d="M217,2041a5,5,0,1,0,5,5A5,5,0,0,0,217,2041Zm0,7.5a2.5,2.5,0,1,1,2.5-2.5A2.5,2.5,0,0,1,217,2048.5Zm-.005-12.5A9.778,9.778,0,0,0,207,2046c0,7.907,6.015,12.825,8.6,14.571a2.474,2.474,0,0,0,2.784,0c2.59-1.749,8.614-6.669,8.614-14.574A9.781,9.781,0,0,0,216.995,2036Zm.006,22.5c-2.255-1.524-7.5-5.791-7.5-12.5a7.251,7.251,0,0,1,7.495-7.5,7.337,7.337,0,0,1,7.505,7.5C224.5,2052.705,219.246,2056.976,217,2058.5Z" transform="translate(-202 -2033.5)" fill="#670707"/>
</svg>
