<svg xmlns="http://www.w3.org/2000/svg" xmlns:xlink="http://www.w3.org/1999/xlink" width="37" height="25" viewBox="0 0 37 25">
  <defs>
    <clipPath id="clip-path">
      <rect id="Rectangle_1894" data-name="Rectangle 1894" width="37" height="25" transform="translate(0 0)" fill="#fff"/>
    </clipPath>
  </defs>
  <g id="Mask_Group_5" data-name="Mask Group 5" transform="translate(0 0)" clip-path="url(#clip-path)">
    <g id="Group_2154" data-name="Group 2154" transform="translate(3.973 -0.46)">
      <path id="air-conditioner-svgrepo-com_1_" data-name="air-conditioner-svgrepo-com (1)" d="M11.973,29.383a.585.585,0,0,1-.3-.074c-.443-.3-2.536-1.847-.788-4.924a2.608,2.608,0,0,0,.419-2.044,1.524,1.524,0,0,0-.837-.862.589.589,0,0,1-.32-.763.576.576,0,0,1,.542-.394.719.719,0,0,1,.222.049,2.668,2.668,0,0,1,1.551,1.551A3.644,3.644,0,0,1,11.949,25c-1.231,2.167.074,3.127.345,3.3a.617.617,0,0,1,.222.813.684.684,0,0,1-.542.271Zm3.989-1.3a.585.585,0,0,1-.3-.074c-.886-.517-2.142-2.117-.739-4.629a2.31,2.31,0,0,0,.369-1.847,1.356,1.356,0,0,0-.739-.763.6.6,0,0,1,.2-1.157.719.719,0,0,1,.222.049,2.546,2.546,0,0,1,1.453,1.477,3.37,3.37,0,0,1-.468,2.856c-1.182,2.117.246,2.979.32,3a.637.637,0,0,1,.271.345.625.625,0,0,1-.049.468.684.684,0,0,1-.542.271Zm-8.174,0a.585.585,0,0,1-.3-.074c-.886-.517-2.142-2.117-.739-4.629a2.31,2.31,0,0,0,.369-1.847,1.356,1.356,0,0,0-.739-.763.6.6,0,0,1,.2-1.157.719.719,0,0,1,.222.049,2.628,2.628,0,0,1,1.453,1.477,3.525,3.525,0,0,1-.468,2.881c-1.182,2.117.246,2.979.32,3a.637.637,0,0,1,.271.345.625.625,0,0,1-.049.468.7.7,0,0,1-.542.246Zm14.995-2.191a.63.63,0,0,1-.468-.2.673.673,0,0,1-.2-.468.733.733,0,0,1,.419-.64h.025v-1.33l-1.256.714v.025a.608.608,0,0,1-.32.566.565.565,0,0,1-.345.1.623.623,0,0,1-.566-.32A.649.649,0,0,1,20,23.818a.574.574,0,0,1,.32-.394.542.542,0,0,1,.32-.1.565.565,0,0,1,.345.1l1.133-.64-1.108-.64a1.215,1.215,0,0,1-.369.074.682.682,0,0,1-.32-.074.711.711,0,0,1-.246-.911.693.693,0,0,1,.591-.32.565.565,0,0,1,.345.1.651.651,0,0,1,.32.566V21.6l1.256.714v-1.33h-.025a.733.733,0,0,1-.419-.64.662.662,0,0,1,.665-.665.687.687,0,0,1,.492.2.673.673,0,0,1,.2.468.654.654,0,0,1-.345.566h-.074v1.28l1.083-.616v-.025a.608.608,0,0,1,.32-.566.565.565,0,0,1,.345-.1.623.623,0,0,1,.566.32.649.649,0,0,1,.074.517.574.574,0,0,1-.32.394.542.542,0,0,1-.32.1.565.565,0,0,1-.345-.1l-1.133.64,1.108.64a1.215,1.215,0,0,1,.369-.074.682.682,0,0,1,.32.074.711.711,0,0,1,.246.911.693.693,0,0,1-.591.32.565.565,0,0,1-.345-.1.651.651,0,0,1-.32-.566v-.025l-1.059-.591v1.28H23.1a.6.6,0,0,1,.345.566A.668.668,0,0,1,22.782,25.886ZM4.858,18.106a3.363,3.363,0,0,1-3.373-3.373V6.706A3.363,3.363,0,0,1,4.858,3.333H27.066A3.363,3.363,0,0,1,30.44,6.706v8.027a3.363,3.363,0,0,1-3.373,3.373H4.858ZM4.513,4.81a1.63,1.63,0,0,0-1.6,1.674v8.568a1.646,1.646,0,0,0,1.6,1.674H27.386a1.63,1.63,0,0,0,1.6-1.674V6.485a1.646,1.646,0,0,0-1.6-1.674Zm.665,9.6a.591.591,0,0,1,0-1.182h21a.591.591,0,1,1,0,1.182h-21Zm0-2.487a.591.591,0,0,1,0-1.182h21a.591.591,0,1,1,0,1.182h-21Z" transform="translate(-1.484 -3.333)" fill="#fff"/>
    </g>
  </g>
</svg>
