<svg xmlns="http://www.w3.org/2000/svg" xmlns:xlink="http://www.w3.org/1999/xlink" width="26" height="21" viewBox="0 0 26 21">
  <defs>
    <clipPath id="clip-path">
      <rect id="Rectangle_1923" data-name="Rectangle 1923" width="26" height="21" transform="translate(-0.472)" fill="#fff" stroke="#707070" stroke-width="1"/>
    </clipPath>
  </defs>
  <g id="Mask_Group_10" data-name="Mask Group 10" transform="translate(0.472)" clip-path="url(#clip-path)">
    <g id="heart-svgrepo-com" transform="translate(1.42 0)">
      <path id="Path_2487" data-name="Path 2487" d="M21.957,4.218a6.614,6.614,0,0,0-9.353.005l-.653.653-.663-.663A6.608,6.608,0,0,0,1.934,4.2a6.608,6.608,0,0,0,.01,9.353l9.51,9.51a.679.679,0,0,0,.962.005l9.53-9.495a6.626,6.626,0,0,0,.01-9.358Zm-.972,8.391-9.049,9.014L2.907,12.593A5.242,5.242,0,1,1,10.32,5.18l1.144,1.144a.682.682,0,0,0,.967,0L13.566,5.19a5.246,5.246,0,0,1,7.419,7.419Z" transform="translate(0 -2.268)" fill="#ecedef"/>
    </g>
  </g>
</svg>
