<svg xmlns="http://www.w3.org/2000/svg" width="21.25" height="29.5" viewBox="0 0 21.25 29.5">
  <path id="phone-01-svgrepo-com" d="M14.625,23.313h.014M9.4,29.5H19.85a6.832,6.832,0,0,0,2.9-.3,2.749,2.749,0,0,0,1.2-1.2,6.832,6.832,0,0,0,.3-2.9V6.4a6.832,6.832,0,0,0-.3-2.9,2.75,2.75,0,0,0-1.2-1.2,6.832,6.832,0,0,0-2.9-.3H9.4a6.832,6.832,0,0,0-2.9.3A2.75,2.75,0,0,0,5.3,3.5,6.832,6.832,0,0,0,5,6.4V25.1A6.832,6.832,0,0,0,5.3,28a2.75,2.75,0,0,0,1.2,1.2A6.832,6.832,0,0,0,9.4,29.5Zm5.913-6.187a.688.688,0,1,1-.687-.687A.688.688,0,0,1,15.313,23.313Z" transform="translate(-4 -1)" fill="none" stroke="#e2e6e9" stroke-linecap="round" stroke-linejoin="round" stroke-width="2"/>
</svg>
