<svg id="settings-Bold" xmlns="http://www.w3.org/2000/svg" width="30" height="30" viewBox="0 0 30 30">
  <rect id="Path" width="30" height="30" fill="rgba(255,255,255,0)"/>
  <g id="settings-Bold-2" data-name="settings-Bold" transform="translate(2.5 2.5)">
    <path id="settings-Bold-3" data-name="settings-Bold" d="M14.5,19.5a5,5,0,1,1,5-5A5.005,5.005,0,0,1,14.5,19.5Zm0-7.5A2.5,2.5,0,1,0,17,14.5,2.5,2.5,0,0,0,14.5,12Zm.625,15h-1.25a3.129,3.129,0,0,1-3.125-3.125.133.133,0,0,0-.085-.136c-.061-.03-.133.035-.133.035a3.137,3.137,0,0,1-4.429.011L5.221,22.9a3.123,3.123,0,0,1,.008-4.425.13.13,0,0,0,.025-.154.163.163,0,0,0-.129-.073A3.129,3.129,0,0,1,2,15.125v-1.25A3.129,3.129,0,0,1,5.125,10.75a.141.141,0,0,0,.135-.08.109.109,0,0,0-.028-.131A3.135,3.135,0,0,1,5.217,6.1L6.1,5.216a3.134,3.134,0,0,1,4.419,0,.122.122,0,0,0,.157.04c.07-.03.071-.13.071-.13A3.129,3.129,0,0,1,13.875,2h1.25A3.129,3.129,0,0,1,18.25,5.125s-.006.124.063.15a.154.154,0,0,0,.147-.031,3.109,3.109,0,0,1,2.226-.937h0a3.1,3.1,0,0,1,2.21.915l.881.881a3.127,3.127,0,0,1,0,4.419c-.017.026-.09.08-.061.155a.107.107,0,0,0,.119.074A3.136,3.136,0,0,1,27,13.875v1.25a3.129,3.129,0,0,1-3.125,3.125c-.075,0-.142.005-.166.061s-.011.1.05.151a3.122,3.122,0,0,1,.02,4.439l-.881.882a3.134,3.134,0,0,1-4.419,0h0s-.07-.085-.14-.06a.128.128,0,0,0-.089.115A3.136,3.136,0,0,1,15.125,27Zm-3.536-5.585.055.022a2.63,2.63,0,0,1,1.606,2.4.634.634,0,0,0,.625.66h1.25a.626.626,0,0,0,.625-.625,2.655,2.655,0,0,1,1.638-2.451,2.605,2.605,0,0,1,2.831.564.634.634,0,0,0,.911.027l.881-.881a.623.623,0,0,0,0-.885,2.656,2.656,0,0,1-.594-2.831c.008-.02.014-.039.023-.059l.007-.018a2.593,2.593,0,0,1,2.4-1.591.634.634,0,0,0,.657-.625v-1.25a.626.626,0,0,0-.625-.625,2.608,2.608,0,0,1-2.44-1.614l-.024-.057a2.583,2.583,0,0,1,.579-2.8.635.635,0,0,0,.025-.91l-.881-.881a.623.623,0,0,0-.442-.183h0a.623.623,0,0,0-.443.184,2.66,2.66,0,0,1-2.87.58h0A2.594,2.594,0,0,1,15.75,5.157a.634.634,0,0,0-.625-.658h-1.25a.626.626,0,0,0-.625.625A2.626,2.626,0,0,1,8.781,7.012a.633.633,0,0,0-.911-.028l-.885.885a.625.625,0,0,0,0,.884,2.612,2.612,0,0,1,.59,2.86,1.259,1.259,0,0,1-.128.236,2.632,2.632,0,0,1-2.287,1.4.634.634,0,0,0-.66.625v1.25a.626.626,0,0,0,.625.625,2.6,2.6,0,0,1,2.429,1.591l.008.018c.011.026.021.051.03.079a2.629,2.629,0,0,1-.585,2.795.639.639,0,0,0-.2.457.618.618,0,0,0,.183.444l.882.883a.625.625,0,0,0,.884,0A2.615,2.615,0,0,1,11.589,21.415ZM23.752,10.7l0,.007Z" transform="translate(-2 -2)" fill="#670707"/>
  </g>
</svg>
