<svg xmlns="http://www.w3.org/2000/svg" width="16" height="16" viewBox="0 0 16 16">
  <g id="settings-Bold" transform="translate(0 0)">
    <rect id="Path" width="16" height="16" transform="translate(0 0)" fill="rgba(255,255,255,0)"/>
    <g id="settings-Bold-2" data-name="settings-Bold" transform="translate(1.333 1.333)">
      <path id="settings-Bold-3" data-name="settings-Bold" d="M8.667,11.333a2.667,2.667,0,1,1,2.667-2.667A2.669,2.669,0,0,1,8.667,11.333Zm0-4A1.333,1.333,0,1,0,10,8.667,1.335,1.335,0,0,0,8.667,7.333Zm.333,8H8.333a1.669,1.669,0,0,1-1.667-1.667.071.071,0,0,0-.045-.073c-.033-.016-.071.019-.071.019a1.673,1.673,0,0,1-2.362.006l-.471-.471a1.666,1.666,0,0,1,0-2.36.07.07,0,0,0,.013-.082.087.087,0,0,0-.069-.039A1.669,1.669,0,0,1,2,9V8.333A1.669,1.669,0,0,1,3.667,6.667a.075.075,0,0,0,.072-.043.058.058,0,0,0-.015-.07,1.672,1.672,0,0,1-.008-2.366l.472-.473a1.671,1.671,0,0,1,2.357,0,.065.065,0,0,0,.084.021c.037-.016.038-.069.038-.069A1.669,1.669,0,0,1,8.333,2H9a1.669,1.669,0,0,1,1.667,1.667s0,.066.033.08a.082.082,0,0,0,.079-.017,1.658,1.658,0,0,1,1.187-.5h0a1.653,1.653,0,0,1,1.179.488l.47.47a1.668,1.668,0,0,1,0,2.357c-.009.014-.048.043-.033.083a.057.057,0,0,0,.063.039,1.673,1.673,0,0,1,1.685,1.667V9a1.669,1.669,0,0,1-1.667,1.667c-.04,0-.076,0-.089.033s-.006.053.027.081a1.665,1.665,0,0,1,.011,2.367l-.47.471a1.671,1.671,0,0,1-2.357,0h0s-.037-.045-.075-.032a.068.068,0,0,0-.047.061A1.673,1.673,0,0,1,9,15.333ZM7.114,12.355l.029.012A1.4,1.4,0,0,1,8,13.648.338.338,0,0,0,8.333,14H9a.334.334,0,0,0,.333-.333,1.416,1.416,0,0,1,.873-1.307,1.39,1.39,0,0,1,1.51.3.338.338,0,0,0,.486.015l.47-.47a.332.332,0,0,0,0-.472,1.417,1.417,0,0,1-.317-1.51c0-.011.007-.021.012-.031l0-.009a1.383,1.383,0,0,1,1.278-.849A.338.338,0,0,0,14,9V8.333A.334.334,0,0,0,13.667,8a1.391,1.391,0,0,1-1.3-.861l-.013-.031a1.378,1.378,0,0,1,.309-1.493.339.339,0,0,0,.013-.485l-.47-.47a.332.332,0,0,0-.236-.1h0a.332.332,0,0,0-.236.1,1.419,1.419,0,0,1-1.531.309h0a1.384,1.384,0,0,1-.867-1.286A.338.338,0,0,0,9,3.333H8.333A.334.334,0,0,0,8,3.667,1.4,1.4,0,0,1,5.617,4.673a.337.337,0,0,0-.486-.015l-.472.472a.334.334,0,0,0,0,.471,1.393,1.393,0,0,1,.315,1.525.671.671,0,0,1-.068.126A1.4,1.4,0,0,1,3.685,8a.338.338,0,0,0-.352.333V9a.334.334,0,0,0,.333.333,1.389,1.389,0,0,1,1.3.849l0,.009c.006.014.011.027.016.042a1.4,1.4,0,0,1-.312,1.491.341.341,0,0,0-.107.244.33.33,0,0,0,.1.237l.471.471a.334.334,0,0,0,.471,0A1.4,1.4,0,0,1,7.114,12.355ZM13.6,6.64v0Z" transform="translate(-2 -2)" fill="#605454"/>
    </g>
  </g>
</svg>
