<svg xmlns="http://www.w3.org/2000/svg" width="16" height="16" viewBox="0 0 16 16">
  <g id="shield-Bold" transform="translate(0 0)">
    <rect id="Path" width="16" height="16" transform="translate(0 0)" fill="rgba(255,255,255,0)"/>
    <path id="shield-Bold_1_" d="M745.544,1822.7a18.98,18.98,0,0,1-5.059-2.5.669.669,0,0,0-.47-.2.678.678,0,0,0-.473.192,13.354,13.354,0,0,1-5.057,2.587.666.666,0,0,0-.485.642c0,5.573.871,8.474,5.817,9.888a.681.681,0,0,0,.367,0c4.945-1.413,5.816-4.343,5.816-9.975A.667.667,0,0,0,745.544,1822.7ZM740,1831.972c-3.829-1.149-4.619-3.169-4.665-8.057a15.556,15.556,0,0,0,4.69-2.381,23.37,23.37,0,0,0,4.639,2.271C744.621,1828.773,743.837,1830.821,740,1831.972Z" transform="translate(-732 -1818.667)" fill="#605454"/>
  </g>
</svg>
