<svg id="shopping-basket-Filled" xmlns="http://www.w3.org/2000/svg" width="24" height="24" viewBox="0 0 24 24">
  <rect id="Path" width="24" height="24" fill="rgba(255,255,255,0)"/>
  <path id="shopping-basket-Filled_1_" d="M508.975,2637.052a.466.466,0,0,0-.342-.153H495.367a.466.466,0,0,0-.342.153.506.506,0,0,0-.108.36l.639,4.842a3.162,3.162,0,0,0,3.123,2.745h6.66a3.158,3.158,0,0,0,3.132-2.754l.612-4.842A.5.5,0,0,0,508.975,2637.052ZM501.1,2641.4a.9.9,0,0,1-1.8,0v-1.8a.9.9,0,1,1,1.8,0Zm3.6,0a.9.9,0,0,1-1.8,0v-1.8a.9.9,0,1,1,1.8,0Zm6.3-7.875a2.024,2.024,0,0,1-2.025,2.025h-13.95a2.025,2.025,0,0,1,0-4.05h1.966l2.438-4.063a.9.9,0,0,1,1.543.926l-1.882,3.137h5.821l-1.882-3.137a.9.9,0,0,1,1.543-.926l2.438,4.063h1.966A2.024,2.024,0,0,1,511,2633.525Z" transform="translate(-491 -2622.999)" fill="#ecedef" fill-rule="evenodd"/>
</svg>
