<svg xmlns="http://www.w3.org/2000/svg" width="16" height="16" viewBox="0 0 16 16">
  <g id="shopping-basket-Bold" transform="translate(0 0)">
    <rect id="Path" width="16" height="16" transform="translate(0 0)" fill="rgba(255,255,255,0)"/>
    <path id="shopping-basket-Bold_1_" d="M499,1900.666v2a.667.667,0,1,1-1.333,0v-2a.667.667,0,0,1,1.333,0Zm2-.667a.666.666,0,0,0-.667.667v2a.667.667,0,1,0,1.333,0v-2A.666.666,0,0,0,501,1900Zm4.286-.919-.5,3.923a2.672,2.672,0,0,1-2.645,2.328h-4.932a2.674,2.674,0,0,1-2.644-2.32l-.515-3.931a1.993,1.993,0,0,1,.951-3.748h.956l1.806-3.01a.667.667,0,0,1,1.143.686l-1.394,2.323h4.312l-1.394-2.323a.667.667,0,0,1,1.143-.686l1.806,3.01h.955a1.993,1.993,0,0,1,.953,3.747Zm-10.953-1.747A.667.667,0,0,0,495,1898h9.333a.667.667,0,0,0,0-1.333H495A.667.667,0,0,0,494.333,1897.333Zm9.576,2h-8.483l.46,3.507a1.336,1.336,0,0,0,1.321,1.16h4.932a1.335,1.335,0,0,0,1.322-1.164Z" transform="translate(-491.667 -1890.666)" fill="#605454"/>
  </g>
</svg>
