<svg id="star-Filled" xmlns="http://www.w3.org/2000/svg" width="16" height="16" viewBox="0 0 16 16">
  <rect id="Path" width="16" height="16" fill="rgba(255,255,255,0)"/>
  <path id="star-Filled_1_" d="M314.1,2634.4l-2.128,2.044.5,2.884a1.245,1.245,0,0,1-.5,1.224,1.278,1.278,0,0,1-1.348.1l-2.635-1.365-2.635,1.365a1.278,1.278,0,0,1-1.348-.1,1.246,1.246,0,0,1-.5-1.224l.5-2.884-2.128-2.045a1.243,1.243,0,0,1-.326-1.285,1.259,1.259,0,0,1,1.03-.863l2.945-.421,1.316-2.627a1.278,1.278,0,0,1,2.28,0l1.316,2.627,2.944.421a1.259,1.259,0,0,1,1.03.863A1.242,1.242,0,0,1,314.1,2634.4Z" transform="translate(-299.792 -2626.108)" fill="#f5af2e"/>
</svg>
