<svg xmlns="http://www.w3.org/2000/svg" width="28.774" height="26.5" viewBox="0 0 28.774 26.5">
  <g id="tools-and-utensils-code-svgrepo-com" transform="translate(0 0)">
    <g id="Group_2172" data-name="Group 2172">
      <g id="Group_2171" data-name="Group 2171">
        <path id="Path_2475" data-name="Path 2475" d="M26.057,20.23H2.716A2.72,2.72,0,0,0,0,22.946v15.5a2.72,2.72,0,0,0,2.716,2.717h7.7a15.937,15.937,0,0,1-.8,4.331H7.735a.619.619,0,1,0,0,1.238h13.3a.619.619,0,1,0,0-1.238H19.158a15.938,15.938,0,0,1-.8-4.331h7.7a2.72,2.72,0,0,0,2.716-2.717v-15.5A2.719,2.719,0,0,0,26.057,20.23ZM1.238,22.946a1.481,1.481,0,0,1,1.479-1.479H26.057a1.481,1.481,0,0,1,1.479,1.479V37.078H1.238Zm9.679,22.546a17.243,17.243,0,0,0,.738-4.331h5.464a17.251,17.251,0,0,0,.738,4.331Zm16.62-7.048h0a1.481,1.481,0,0,1-1.479,1.48H2.716a1.481,1.481,0,0,1-1.479-1.48v-.128h26.3Z" transform="translate(0 -20.23)" fill="#e2e6e9"/>
        <path id="Path_2476" data-name="Path 2476" d="M168.666,275.99H155.342a.619.619,0,1,0,0,1.238h13.324a.619.619,0,1,0,0-1.238Z" transform="translate(-146.028 -261.617)" fill="#e2e6e9"/>
        <path id="Path_2477" data-name="Path 2477" d="M98.889,275.99h-.1a.619.619,0,1,0,0,1.238h.1a.619.619,0,0,0,0-1.238Z" transform="translate(-92.654 -261.617)" fill="#e2e6e9"/>
        <path id="Path_2478" data-name="Path 2478" d="M317.326,93.027l3.648,3.119-3.648,3.119a.619.619,0,0,0,.8.941l4.2-3.589a.619.619,0,0,0,0-.941l-4.2-3.589a.619.619,0,0,0-.8.941Z" transform="translate(-299.288 -87.908)" fill="#e2e6e9"/>
        <path id="Path_2479" data-name="Path 2479" d="M98.388,96.616l4.2,3.589a.619.619,0,0,0,.8-.941l-3.648-3.119,3.648-3.119a.619.619,0,0,0-.8-.941l-4.2,3.589a.619.619,0,0,0,0,.941Z" transform="translate(-92.654 -87.908)" fill="#e2e6e9"/>
        <path id="Path_2480" data-name="Path 2480" d="M217.337,80.446a.618.618,0,0,0,.78-.4l3.156-9.695a.619.619,0,1,0-1.177-.383l-3.156,9.695A.619.619,0,0,0,217.337,80.446Z" transform="translate(-204.719 -66.773)" fill="#e2e6e9"/>
      </g>
    </g>
  </g>
</svg>
