<svg id="tools-svgrepo-com" xmlns="http://www.w3.org/2000/svg" width="34" height="34" viewBox="0 0 34 34">
  <path id="Path_2481" data-name="Path 2481" d="M19.769,14H15.954a.954.954,0,0,0-.954.954v5.722a.954.954,0,0,0,.954.954h3.815a.954.954,0,0,0,.954-.954V14.954A.954.954,0,0,0,19.769,14Zm-.381,6.294H16.335V15.335h3.052Z" transform="translate(-0.341 -0.981)" fill="#e2e6e9"/>
  <path id="Path_2482" data-name="Path 2482" d="M32.242,11.992l-3.9-3.9a.954.954,0,0,0-.668-.277H22.905V5.955A1.907,1.907,0,0,0,21.074,4H13.292a1.831,1.831,0,0,0-1.755,1.955v1.86H6.845a.954.954,0,0,0-.677.277l-3.891,3.9A.954.954,0,0,0,2,12.669v14.22A1.907,1.907,0,0,0,3.907,28.8h26.7a1.907,1.907,0,0,0,1.907-1.907V12.66a.954.954,0,0,0-.277-.668Zm-18.8-6.085h7.63V7.815h-7.63ZM30.611,16.4H21.074v1.841h9.537v8.65H3.907v-8.65h9.537V16.4H3.907V13.06L7.245,9.722H27.273l3.338,3.338Z" transform="translate(0.261 -0.519)" fill="#e2e6e9"/>
  <rect id="Rectangle_1899" data-name="Rectangle 1899" width="34" height="34" fill="rgba(0,0,0,0)"/>
</svg>
