<svg id="trash-Bold" xmlns="http://www.w3.org/2000/svg" width="16" height="16" viewBox="0 0 16 16">
  <rect id="Path" width="16" height="16" fill="rgba(255,255,255,0)"/>
  <path id="trash-Bold_1_" d="M649.667,1822h-2.373a.666.666,0,0,1-.633-.455l-.211-.633a1.333,1.333,0,0,0-1.265-.911h-3.039a1.331,1.331,0,0,0-1.265.912l-.211.632a.666.666,0,0,1-.633.456h-2.372a.667.667,0,1,0,0,1.333h.71l.5,7.511a2.673,2.673,0,0,0,2.661,2.489H645.8a2.673,2.673,0,0,0,2.661-2.489l.5-7.511h.709a.667.667,0,0,0,0-1.333Zm-7.519-.667h3.039l.211.633c0,.012.01.022.015.034h-3.489c0-.012.011-.023.015-.035Zm4.979,9.422A1.337,1.337,0,0,1,645.8,1832h-4.258a1.337,1.337,0,0,1-1.331-1.245l-.494-7.422h.327a2.026,2.026,0,0,0,.211-.017.558.558,0,0,0,.083.017H647a.694.694,0,0,0,.083-.017,2.01,2.01,0,0,0,.211.017h.327ZM645.667,1826v3.333a.667.667,0,0,1-1.333,0V1826a.667.667,0,0,1,1.333,0ZM643,1826v3.333a.667.667,0,0,1-1.333,0V1826a.667.667,0,0,1,1.333,0Z" transform="translate(-635.667 -1818.667)" fill="#988989"/>
</svg>
