<svg id="user-Bold" xmlns="http://www.w3.org/2000/svg" width="30" height="30" viewBox="0 0 30 30">
  <rect id="Path" width="30" height="30" fill="rgba(255,255,255,0)"/>
  <path id="user-Bold_1_" d="M697,1977.75a6.875,6.875,0,1,0-6.875-6.875A6.883,6.883,0,0,0,697,1977.75Zm0-11.25a4.375,4.375,0,1,1-4.375,4.375A4.38,4.38,0,0,1,697,1966.5Zm10,17.459v1.264a5.029,5.029,0,0,1-1.281,3.361,1.25,1.25,0,0,1-1.864-1.667,2.537,2.537,0,0,0,.644-1.694v-1.264a3.762,3.762,0,0,0-2.816-3.677.956.956,0,0,0-.7.087,8.2,8.2,0,0,1-7.951.008.961.961,0,0,0-.711-.095,3.76,3.76,0,0,0-2.819,3.677v1.264a2.534,2.534,0,0,0,.644,1.694,1.25,1.25,0,1,1-1.862,1.667,5.029,5.029,0,0,1-1.281-3.361v-1.264a6.26,6.26,0,0,1,4.709-6.1,3.465,3.465,0,0,1,2.549.341,5.7,5.7,0,0,0,5.5-.007,3.453,3.453,0,0,1,2.539-.335A6.262,6.262,0,0,1,707,1983.959Z" transform="translate(-682 -1961.5)" fill="#670707"/>
</svg>
