<svg id="user-Bold" xmlns="http://www.w3.org/2000/svg" width="17" height="17" viewBox="0 0 17 17">
  <rect id="Path" width="17" height="17" fill="rgba(255,255,255,0)"/>
  <path id="user-Bold_1_" d="M691.815,1970.621a3.31,3.31,0,1,0-3.31-3.31A3.314,3.314,0,0,0,691.815,1970.621Zm0-5.417a2.107,2.107,0,1,1-2.107,2.107A2.109,2.109,0,0,1,691.815,1965.2Zm4.815,8.407v.609a2.422,2.422,0,0,1-.617,1.618.6.6,0,0,1-.9-.8,1.222,1.222,0,0,0,.31-.815v-.609a1.812,1.812,0,0,0-1.356-1.771.461.461,0,0,0-.338.042,3.951,3.951,0,0,1-3.829,0,.462.462,0,0,0-.342-.046,1.811,1.811,0,0,0-1.357,1.771v.609a1.221,1.221,0,0,0,.31.815.6.6,0,0,1-.9.8,2.422,2.422,0,0,1-.617-1.618v-.609a3.014,3.014,0,0,1,2.267-2.938,1.668,1.668,0,0,1,1.227.165,2.745,2.745,0,0,0,2.647,0,1.662,1.662,0,0,1,1.223-.161A3.015,3.015,0,0,1,696.63,1973.611Z" transform="translate(-684.167 -1962.584)" fill="#605454"/>
</svg>
